#N canvas 617 357 506 573 12;
#X obj 120 31 inlet bang;
#X obj 262 217 soundfiler;
#X obj 262 78 inlet file-path;
#X obj 67 385 outlet~;
#N canvas 0 50 450 250 (subpatch) 0;
#X array \$0-sample 88128 float 2;
#X coords 0 1 88128 -1 200 140 1 0 0;
#X restore 65 430 graph;
#X obj 323 129 symbol \$0-sample;
#X msg 262 188 read -resize \$1 \$2;
#X obj 262 158 pack s s;
#X obj 262 103 t a b;
#X obj 67 246 tabread4~ \$0-sample;
#X obj 67 196 phasor~;
#X obj 67 221 *~;
#X obj 67 170 /;
#X obj 67 146 swap 44100;
#X msg 205 160 0;
#X obj 67 93 bng 15 250 50 0 empty empty empty 17 7 0 10 -262144 -1
-1;
#X obj 120 55 route float;
#X obj 67 113 f;
#X obj 131 322 line~;
#X obj 224 49 loadbang;
#X msg 131 296 1;
#X obj 67 355 *~;
#X obj 120 80 t b f;
#X text 38 9 Megalon 2017;
#X connect 0 0 16 0;
#X connect 1 0 11 1;
#X connect 1 0 17 1;
#X connect 2 0 8 0;
#X connect 5 0 7 1;
#X connect 6 0 1 0;
#X connect 7 0 6 0;
#X connect 8 0 7 0;
#X connect 8 1 5 0;
#X connect 9 0 21 0;
#X connect 10 0 11 0;
#X connect 11 0 9 0;
#X connect 12 0 10 0;
#X connect 13 0 12 0;
#X connect 13 1 12 1;
#X connect 14 0 10 0;
#X connect 14 0 18 0;
#X connect 15 0 17 0;
#X connect 16 0 22 0;
#X connect 16 1 14 0;
#X connect 17 0 13 0;
#X connect 18 0 21 1;
#X connect 19 0 14 0;
#X connect 20 0 18 0;
#X connect 21 0 3 0;
#X connect 22 0 15 0;
#X connect 22 1 10 1;
#X connect 22 1 20 0;
