#N canvas 137 115 781 745 12;
#X obj 88 221 list split 1;
#X obj 88 108 until;
#X obj 88 43 inlet;
#X obj 88 193 list append;
#X obj 59 462 list;
#X obj 88 437 list prepend;
#X obj 88 296 list fromsymbol;
#X obj 59 674 list tosymbol;
#X obj 88 341 spigot;
#X obj 181 341 spigot;
#X obj 88 75 t b a b;
#X msg 155 102 0;
#X obj 88 133 f 0;
#X obj 121 133 + 1;
#X obj 88 158 t b f;
#X obj 274 186 sel 0;
#X msg 274 231 0;
#X msg 414 231 1;
#X msg 374 231 0;
#X msg 311 231 1;
#X obj 59 699 outlet;
#X obj 51 267 t b a;
#X msg 51 296 32;
#X obj 59 594 list split;
#X obj 112 516 print before-split;
#X obj 59 487 t a a a;
#X obj 136 542 list length;
#X obj 136 567 - 1;
#X obj 96 648 print after-split;
#X obj 59 619 t a a;
#X obj 181 407 t a;
#X obj 181 248 bng 15 250 50 0 empty empty empty 17 7 0 10 -262144
-1 -1;
#X text 263 288 After each item in the list \, insert a space by using
the keycode 32;
#X text 269 445 After we have looped through all of the items in the
list \, we are left with a space (32) at the end \, so we remove this
by spliting the list at length - 1;
#X text 268 515 <--Connect this print object for debugging;
#X text 244 648 <--Connect this print object for debugging;
#X text 269 43 This abstraction will convert a space separated list
into a single symbol.;
#X text 274 147 For the first character \, add it to the right inlet
of prepend \, all other characters go to the left inlet.;
#X text 653 6 Megalon 2017;
#X connect 0 0 21 0;
#X connect 0 1 3 1;
#X connect 0 2 31 0;
#X connect 1 0 12 0;
#X connect 2 0 10 0;
#X connect 3 0 0 0;
#X connect 4 0 25 0;
#X connect 5 0 4 1;
#X connect 5 0 30 0;
#X connect 6 0 8 0;
#X connect 6 0 9 0;
#X connect 7 0 20 0;
#X connect 8 0 5 0;
#X connect 9 0 30 0;
#X connect 10 0 1 0;
#X connect 10 1 3 1;
#X connect 10 2 11 0;
#X connect 11 0 12 1;
#X connect 12 0 13 0;
#X connect 12 0 14 0;
#X connect 13 0 12 1;
#X connect 14 0 3 0;
#X connect 14 1 15 0;
#X connect 15 0 16 0;
#X connect 15 0 17 0;
#X connect 15 1 18 0;
#X connect 15 1 19 0;
#X connect 16 0 8 1;
#X connect 17 0 9 1;
#X connect 18 0 9 1;
#X connect 19 0 8 1;
#X connect 21 0 22 0;
#X connect 21 1 6 0;
#X connect 22 0 5 0;
#X connect 23 0 29 0;
#X connect 25 0 23 0;
#X connect 25 1 26 0;
#X connect 26 0 27 0;
#X connect 27 0 23 1;
#X connect 29 0 7 0;
#X connect 30 0 5 1;
#X connect 31 0 1 1;
#X connect 31 0 4 0;
